<svg width="1200" height="900" viewBox="0 0 1200 900" xmlns="http://www.w3.org/2000/svg" role="img" aria-labelledby="title desc">
  <title id="title">Kindness Cars logo</title>
  <desc id="desc">Orange and navy silhouettes of two children sharing a toy car inside a two-tone heart with the words Kindness Cars underneath.</desc>

  <rect width="1200" height="900" fill="#f3f3f5"/>

  <g transform="translate(0 10)">
    <!-- Heart outline -->
    <path d="M598 300C516 235 412 184 400 107C392 58 425 17 475 11C525 5 563 28 598 62"
          fill="none" stroke="#F88612" stroke-width="26" stroke-linecap="round"/>
    <path d="M602 62C638 28 674 5 724 11C775 17 807 58 800 107C787 185 684 235 602 300"
          fill="none" stroke="#333B6B" stroke-width="26" stroke-linecap="round"/>

    <!-- Left child (orange) -->
    <g fill="#F88612">
      <ellipse cx="510" cy="190" rx="84" ry="72"/>
      <path d="M445 146C447 127 461 112 481 108C470 121 478 138 496 146Z"/>
      <path d="M568 152C558 139 544 132 525 130C538 145 542 162 536 176Z"/>
      <path d="M431 236C454 208 503 197 541 217C562 229 572 251 566 270C560 289 543 300 523 298C508 332 473 359 436 365C415 355 401 332 400 307C399 280 408 255 431 236Z"/>
      <path d="M420 365C446 343 487 347 522 365C549 379 559 411 551 441C536 474 504 492 468 491C428 490 396 464 391 428C388 403 397 379 420 365Z"/>
      <path d="M438 455C475 470 511 468 539 452C518 500 472 545 428 575C390 555 365 517 360 470C380 454 411 446 438 455Z"/>
      <circle cx="482" cy="226" r="12" fill="#f3f3f5"/>
      <circle cx="486" cy="229" r="8" fill="#F88612"/>
    </g>

    <!-- Right child (navy) -->
    <g fill="#333B6B">
      <ellipse cx="695" cy="188" rx="84" ry="72"/>
      <path d="M755 205C778 205 793 224 792 247C791 269 774 286 751 286C727 286 711 268 710 247C709 224 729 205 755 205Z"/>
      <path d="M749 282C761 299 768 320 763 339C752 331 741 323 731 314C726 302 731 291 749 282Z"/>
      <path d="M632 238C653 209 702 198 740 218C760 229 771 248 768 266C765 286 749 300 730 301C718 329 687 353 652 359C628 352 612 331 610 306C608 280 613 258 632 238Z"/>
      <path d="M640 360C669 344 706 345 741 364C768 378 781 407 775 437C762 470 728 490 689 491C649 492 617 468 610 434C606 406 617 376 640 360Z"/>
      <path d="M728 453C688 470 652 468 621 449C640 499 687 544 730 574C769 553 795 515 801 468C783 452 754 444 728 453Z"/>
      <circle cx="676" cy="228" r="12" fill="#f3f3f5"/>
      <circle cx="672" cy="231" r="8" fill="#333B6B"/>
    </g>

    <!-- Shared car -->
    <g transform="translate(560 282)">
      <path d="M0 44C10 28 20 18 35 18H72C90 18 103 26 112 44L115 50H-4Z" fill="#f3f3f5"/>
      <rect x="2" y="42" width="112" height="24" rx="9" fill="#f3f3f5"/>
      <rect x="30" y="22" width="24" height="14" rx="2" fill="#f3f3f5"/>
      <rect x="56" y="22" width="28" height="14" rx="2" fill="#f3f3f5"/>
      <path d="M0 44C10 28 20 18 35 18H72C90 18 103 26 112 44L115 50H-4" fill="none" stroke="#333B6B" stroke-width="6" stroke-linejoin="round"/>
      <rect x="2" y="42" width="112" height="24" rx="9" fill="none" stroke="#333B6B" stroke-width="6"/>
      <circle cx="20" cy="66" r="11" fill="#f3f3f5" stroke="#333B6B" stroke-width="6"/>
      <circle cx="92" cy="66" r="11" fill="#f3f3f5" stroke="#333B6B" stroke-width="6"/>
    </g>

    <!-- Hands -->
    <path d="M545 349C560 352 568 345 574 336" fill="none" stroke="#F88612" stroke-width="12" stroke-linecap="round"/>
    <path d="M644 349C628 352 620 345 614 336" fill="none" stroke="#333B6B" stroke-width="12" stroke-linecap="round"/>
  </g>

  <text x="600" y="782" text-anchor="middle" fill="#333B6B" font-size="104" font-weight="600" font-family="'Nunito Sans','Avenir Next','Trebuchet MS',sans-serif">Kindness Cars</text>
</svg>
